<svg xmlns="http://www.w3.org/2000/svg" viewBox="0 0 148.42 116.03"><defs><style>.cls-1{fill:#fff;}</style></defs><title>ico-ciudad</title><g id="Layer_2" data-name="Layer 2"><g id="Layer_1-2" data-name="Layer 1"><path class="cls-1" d="M56.88,56.79v7.28h4.77v3.74H53.19v-7.3H44.66v7.36H35.71v44.89H32v-28H20.56V77.32H17.05v35.26H13.34V23.23H28.51v22.2H39.37V34.35h7.44V30.64h15v3.6h7.41V49.09h14.9V16h22.46V52.88H114v-26h18.59v85.69H129V75.41H116V67.94h-13v-3.7h16.7v7.28h9.19V30.66h-11v25.9H102.88V19.65H88V52.86H65.53V38.08H58.09V34.39h-7.5V38H43.18V49.12H24.88V26.94H17.1V73.51h7.17v7.37h7.57V64.2h9.07V56.79Z"/><path class="cls-1" d="M32.7,16.75h4.38V12.37h4.48v4.39H46V21.2H41.59v4.43H37.15V21.27H32.7Z"/><path class="cls-1" d="M0,98.47H2.91V95.55h3v2.93H8.83v3H5.92v2.95H3v-2.9H0Z"/><path class="cls-1" d="M81.42,38.21H75V31.67h6.43Z"/><path class="cls-1" d="M7.63,116H1.2v-6.54H7.63Z"/><path class="cls-1" d="M51,116H44.53v-6.54H51Z"/><path class="cls-1" d="M102.75,6.54H96.33V0h6.42Z"/><path class="cls-1" d="M126.63,85.48H120.2V78.93h6.43Z"/><path class="cls-1" d="M148.42,82.2H142V75.66h6.43Z"/><path class="cls-1" d="M109.92,102.62h-1a1.06,1.06,0,0,1-1.13-1.08c0-2.08,0-4.15,0-6.23,0-1.28.73-2.14,2.24-2.88a3.6,3.6,0,0,1,1-3.61,3.72,3.72,0,0,1,2.94-1c2.28.14,3.64,2.06,3.27,4.65a7.23,7.23,0,0,1,1,.55,3,3,0,0,1,1.26,2.52c0,2,0,3.93,0,5.89,0,.85-.38,1.22-1.25,1.23h-.83c0,.25,0,.45,0,.65,0,1.49,0,3,0,4.47,0,.87-.38,1.24-1.24,1.24h-4.92c-.9,0-1.26-.37-1.26-1.28v-5.08Zm7.42-2.13c0-1.42,0-2.76,0-4.09s.07-2.05-1.92-1.93a1.08,1.08,0,0,1-1.21-.71,1,1,0,0,1,.44-1.28,1.32,1.32,0,0,0,.52-1.4,1.5,1.5,0,0,0-1.41-1.19,1.63,1.63,0,0,0-1.61.91,1.39,1.39,0,0,0,.47,1.71,1.06,1.06,0,0,1,.41,1.25,1.05,1.05,0,0,1-1.11.71h-.62c-1.08,0-1.39.3-1.39,1.36v4.66h.75c1,0,1.37.37,1.37,1.36s0,2,0,2.94v2h3.18v-.66c0-1.49,0-3,0-4.47a1.07,1.07,0,0,1,1.19-1.19Z"/><path class="cls-1" d="M50.79,84.52c-.49-2.31.07-4.24,2.1-5.52a4.82,4.82,0,0,1,5.48,0,4.75,4.75,0,0,1,2.07,5.48l.53.27a4,4,0,0,1,2.51,3.79c.06,2.69,0,5.39,0,8.09a1.47,1.47,0,0,1-1.63,1.6H60.62v6.88c0,1.18-.49,1.69-1.65,1.7H52.25a1.43,1.43,0,0,1-1.64-1.64c0-2,0-4,0-6v-.91H49.26a1.39,1.39,0,0,1-1.49-1.48c0-2.8,0-5.6,0-8.39a4,4,0,0,1,2.3-3.53C50.3,84.71,50.54,84.63,50.79,84.52Zm7,19.39v-6.5c0-1.63.42-2,2-2.06h.85V89.76c0-2.36-.15-2.52-2.5-2.51-.78,0-1.43-.18-1.71-1a1.48,1.48,0,0,1,.67-1.78,1.78,1.78,0,0,0,.59-2,1.9,1.9,0,0,0-1.49-1.37,2.22,2.22,0,0,0-2.49,1,1.92,1.92,0,0,0,.65,2.49,1.38,1.38,0,0,1,.48,1.63,1.4,1.4,0,0,1-1.42.95H52.34c-1.25,0-1.72.46-1.73,1.69,0,1.75,0,3.51,0,5.26v1.16h1c1.46,0,1.9.46,1.9,1.93v6.63Z"/><path class="cls-1" d="M23.53,63.77H22.9a.66.66,0,0,1-.71-.69c0-1.32,0-2.64,0-3.95,0-.81.44-1.35,1.41-1.83a2.36,2.36,0,0,1,3.6-2.56,2.23,2.23,0,0,1,.95,2.56l.28.14a1.89,1.89,0,0,1,1.15,1.76c0,1.27,0,2.54,0,3.81a.69.69,0,0,1-.76.76h-.6v.39c0,1,0,1.92,0,2.88,0,.52-.24.76-.77.76-1,0-2.11,0-3.16,0-.53,0-.77-.23-.78-.76V63.77Zm4.71-1.36V59.78c0-1.11-.07-1.18-1.17-1.18-.37,0-.68-.08-.81-.45a.71.71,0,0,1,.31-.84.84.84,0,0,0,.29-.94.89.89,0,0,0-.71-.65,1,1,0,0,0-1.16.49.89.89,0,0,0,.3,1.17.67.67,0,0,1,.23.77.68.68,0,0,1-.67.45h-.43c-.7,0-.89.19-.89.9v2.91H24c.69,0,.89.22.89.91v3.12h2V66c0-.91,0-1.82,0-2.73,0-.68.22-.89.91-.9Z"/><path class="cls-1" d="M93,31.17a2.35,2.35,0,0,1,3.52-2.6,2.23,2.23,0,0,1,1,2.6l.27.13A1.91,1.91,0,0,1,98.91,33c0,1.29,0,2.59,0,3.88a.67.67,0,0,1-.72.72h-.63V41a.67.67,0,0,1-.7.71h-3.3a.68.68,0,0,1-.71-.77c0-.95,0-1.89,0-2.84v-.44h-.67a.65.65,0,0,1-.67-.69c0-1.32,0-2.63,0-3.95C91.54,32.18,92,31.66,93,31.17Zm4.62,5.12V33.71c0-1.19,0-1.21-1.22-1.26a1,1,0,0,1-.61-.21c-.32-.27-.24-.7.12-1a.92.92,0,0,0,0-1.46,1.09,1.09,0,0,0-1.46.18.89.89,0,0,0,.2,1.29.68.68,0,0,1,.25.76.65.65,0,0,1-.69.47h-.61a.64.64,0,0,0-.69.69c0,1,0,1.94,0,2.91a1.12,1.12,0,0,0,0,.22h.37c.74,0,.92.19.92.94v3.08h2V37.09c0-.55.24-.79.79-.8Z"/><path class="cls-1" d="M86.73,79.24c-.4,0-.73,0-1.07,0a1,1,0,0,1-1.06-1.08c0-2.06,0-4.12,0-6.17a3,3,0,0,1,1.78-2.69,2,2,0,0,1,.26-.11l.2-.11a3.71,3.71,0,1,1,7.16,0l.49.22a2.91,2.91,0,0,1,1.75,2.59c0,2.09,0,4.19,0,6.28,0,.7-.42,1-1.17,1.08-.93,0-.93,0-.93.94,0,1.37,0,2.75,0,4.13,0,.93-.38,1.31-1.3,1.32H88c-.93,0-1.31-.38-1.31-1.31Zm7.42-2.11v-.67c0-1.32,0-2.64,0-4,0-1.1-.3-1.4-1.41-1.4h-.4a1.16,1.16,0,0,1-1.3-.68c-.24-.59.06-1,.49-1.36a1.42,1.42,0,0,0-.47-2.43,1.65,1.65,0,0,0-2,.62,1.44,1.44,0,0,0,.43,1.94,1.05,1.05,0,0,1,.37,1.16,1,1,0,0,1-1,.74h-.9c-.85,0-1.2.37-1.21,1.21v4.82h.81c.94,0,1.31.36,1.32,1.3v5H92c0-.14,0-.25,0-.36,0-1.61,0-3.21,0-4.81a1,1,0,0,1,1.15-1.16Z"/></g></g></svg>