<svg xmlns="http://www.w3.org/2000/svg" viewBox="0 0 138.47 109.15"><defs><style>.cls-1{fill:#fff;}</style></defs><title>ico-candidato</title><g id="Layer_2" data-name="Layer 2"><g id="Layer_1-2" data-name="Layer 1"><path class="cls-1" d="M49,78.86Q38.33,87.32,27.84,95.69q-7.2,5.73-14.4,11.48c-3.8,3-8.81,2.54-11.67-1.06S-.44,97.54,3.36,94.5Q20.49,80.81,37.68,67.15a1.61,1.61,0,0,0,.6-2.34c-9.68-22.24,5-47.73,29-50.46a36.32,36.32,0,0,1,9,72.07,35.88,35.88,0,0,1-26.58-7Zm44.72-6.09c7.79-7.09,12.29-20.52,7.5-33.35A31.69,31.69,0,0,0,68.93,19c-12.77.86-24.52,10.64-27.84,23.49s2,25,8.8,30.51c3.29-8.23,6.55-12.92,10.61-15.25a16.87,16.87,0,0,0,22.75-.07C88.49,61.44,91.67,66.67,93.67,72.77Z"/><path class="cls-1" d="M63.44,37.42H60.83c-.42,0-.54-.13-.53-.55a10.25,10.25,0,0,1,20.34-1.58A10,10,0,0,1,77,45c-.49.42-1,.82-1.48,1.26a5.61,5.61,0,0,0-1.84,4.21c0,.55-.07.61-.62.61H68c-.48,0-.57-.09-.57-.57a12.06,12.06,0,0,1,4.78-9.7l.94-.77a3.93,3.93,0,1,0-6.46-3.45c-.09.81,0,.86-1,.85C64.94,37.41,64.19,37.42,63.44,37.42Z"/><path class="cls-1" d="M70.54,52.73a3.45,3.45,0,1,1-3.44,3.44A3.44,3.44,0,0,1,70.54,52.73Z"/><path class="cls-1" d="M115.89,61.21h3.29V57.92h3.36v3.3h3.31v3.33h-3.28v3.32h-3.34V64.6h-3.34Z"/><path class="cls-1" d="M70.55,3.29h3.29V0H77.2V3.3h3.31V6.63H77.23V10H73.89V6.69H70.55Z"/><path class="cls-1" d="M10.05,54.44h5v-5h5.13v5h5v5.08h-5v5.06H15.13v-5H10.05Z"/><path class="cls-1" d="M104.72,87.46H98.3V80.91h6.42Z"/><path class="cls-1" d="M138.47,107.71h-6.42v-6.55h6.42Z"/><path class="cls-1" d="M58.06,94.62h-4V90.28h4Z"/><path class="cls-1" d="M40.09,10H33.67V3.41h6.42Z"/><path class="cls-1" d="M54,52.73H47.57V46.18H54Z"/><path class="cls-1" d="M133.67,35.51V41.9H127.1V35.51Z"/><path class="cls-1" d="M113.17,18.9v6.39H106.6V18.9Z"/></g></g></svg>