<svg xmlns="http://www.w3.org/2000/svg" viewBox="0 0 129.18 120.83"><defs><style>.cls-1{fill:#fff;}</style></defs><title>ico-policial</title><g id="Layer_2" data-name="Layer 2"><g id="Layer_1-2" data-name="Layer 1"><path class="cls-1" d="M49.53,99.58l-5-5Q39.28,89.36,34,84.1C31.91,82,31.79,79,33.72,77s5-2,7.18.26L56.36,92.75c.74-.73,1.46-1.38,2.12-2.09a5.88,5.88,0,0,1,5.09-2,2.07,2.07,0,0,0,1.83-.83q26.14-26.18,52.31-52.34a5.39,5.39,0,0,1,4.43-1.87,4.78,4.78,0,0,1,4.3,3.24,4.86,4.86,0,0,1-1.08,5.28c-.29.32-.61.62-.92.93Q98.49,69,72.52,94.93A2.32,2.32,0,0,0,71.7,97a5.38,5.38,0,0,1-1.62,4.43q-5.79,5.81-11.6,11.58a6.16,6.16,0,0,1-4.55,1.67,2.79,2.79,0,0,0-1.73.66c-1.38,1.24-2.64,2.62-4,3.92a5.05,5.05,0,1,1-7.13-7.15c1.33-1.36,2.7-2.68,4-4,.27-.29.62-.73.58-1.07-.31-2.78,1-4.79,3-6.5C49,100.23,49.21,99.92,49.53,99.58Zm23.7-15a12.81,12.81,0,0,0,1-.83L119.47,38.5c.16-.17.44-.32.48-.51a8.67,8.67,0,0,0,.09-1.35,8.83,8.83,0,0,0-1.36.14c-.19,0-.34.31-.51.48L73,82.41a4.66,4.66,0,0,0-.78.89C71.91,83.89,72.33,84.54,73.23,84.57Z"/><path class="cls-1" d="M0,99.19H6.57V92.61H13.3v6.6h6.61v6.66H13.35v6.66H6.68V106H0Z"/><path class="cls-1" d="M3.33,25.92H7.7V21.54h4.48v4.39h4.41v4.44H12.22V34.8H7.77V30.44H3.33Z"/><path class="cls-1" d="M93.8,14.83h6.57V8.25h6.74v6.6h6.61v6.66h-6.56v6.66h-6.68V21.62H93.8Z"/><path class="cls-1" d="M115.92,63.39h4.37V59h4.49V63.4h4.4v4.44h-4.37v4.43h-4.44V67.91h-4.45Z"/><path class="cls-1" d="M20.05,70.59H13.62V64.05h6.43Z"/><path class="cls-1" d="M97,114.29H90.59v-6.54H97Z"/><path class="cls-1" d="M110.18,101.17h-6.42V94.62h6.42Z"/><path class="cls-1" d="M129,95.88h-6.42V89.34H129Z"/><path class="cls-1" d="M80.79,34.48c-.18,4.55,0,9.14-.63,13.62C78.7,58.54,69.63,67,59.17,68.23A24.59,24.59,0,0,1,31.78,47.47a8.08,8.08,0,0,1-.14-1.29c0-3.92,0-7.83,0-11.82a45,45,0,0,0,24.41,7.08,45,45,0,0,0,24.44-7.07Z"/><path class="cls-1" d="M85.76,20.8c-15.89,5-42.2,5-59.53,0a30.92,30.92,0,0,1,1.21-3.71,25.33,25.33,0,0,1,8.14-9.53C41.66,2.92,48.43,0,56.17,0,64.08,0,71,3.12,77.11,7.94a27.28,27.28,0,0,1,6.78,7.5A11.88,11.88,0,0,1,85.76,20.8ZM60.09,13.9a4,4,0,1,0-4,4.07A4,4,0,0,0,60.09,13.9Z"/><path class="cls-1" d="M28.27,24.9a128.24,128.24,0,0,0,55.49.26c-.61.72-1.19,1.49-1.85,2.16A30.87,30.87,0,0,1,68.56,35,40.49,40.49,0,0,1,35.3,31.29,21.32,21.32,0,0,1,29,25.88C28.77,25.62,28.59,25.35,28.27,24.9Z"/></g></g></svg>