<svg xmlns="http://www.w3.org/2000/svg" viewBox="0 0 155.11 139.57"><defs><style>.cls-1{fill:#fff;}</style></defs><title>ico-actualidad</title><g id="Layer_2" data-name="Layer 2"><g id="Layer_1-2" data-name="Layer 1"><path class="cls-1" d="M7.51,30l9.27-1.21-.55-4.18,114-14.35c.27,2.11.54,4.14.8,6.17q1.65,13.16,3.31,26.31,1.74,13.81,3.46,27.65,1.63,13,3.28,26c.29,2.26.59,4.53.82,6.8a6.86,6.86,0,0,1-5.93,7.6c-7.61,1-15.23,1.94-22.85,2.9l-24.41,3.06-24.19,3-24.3,3c-4.8.6-9.59,1.22-14.39,1.77A6.7,6.7,0,0,1,18.56,119c-.69-4.67-1.22-9.36-1.81-14q-1.52-12.11-3-24.2L10.68,56.34Q9.15,44.19,7.64,32C7.56,31.38,7.55,30.71,7.51,30Zm24.64,89.49a4.23,4.23,0,0,0,.64,0l16.83-2.12,24.19-3,24.07-3,24.3-3c4.35-.54,8.7-1.07,13-1.63a2.67,2.67,0,0,0,2.55-3.18c-.11-1.3-.31-2.6-.47-3.9q-1.73-13.94-3.46-27.87t-3.5-27.87Q128.61,29.9,126.9,16a7.7,7.7,0,0,0-.26-1L20.85,28.32,21.93,37q1.52,12.15,3,24.31l3,24.19q1.53,12.2,3.05,24.41C31.44,113.07,31.78,116.22,32.15,119.45ZM11.9,33.71c.09.78.15,1.45.23,2.11Q13.54,47,15,58.22,16.48,70.31,18,82.4t3,24.08c.5,3.94,1,7.88,1.53,11.81a2.55,2.55,0,0,0,2.94,2.15,2.61,2.61,0,0,0,2.36-2.79A15.9,15.9,0,0,0,27.7,116q-1.65-13-3.28-26T21.17,64q-1.65-13.15-3.31-26.31c-.2-1.57-.42-3.15-.63-4.77Z"/><path class="cls-1" d="M44.58,98.78c-.65.07-1.14.14-1.64.18a1.7,1.7,0,0,1-2-1.59c-.41-3.41-.81-6.83-1.16-10.25-.21-2.11.77-3.63,3.14-5.15-.92-2.75-.48-5.21,1.88-7a5.9,5.9,0,0,1,6.7-.67c2.54,1.3,3.53,3.51,3.22,6.38l.77.27A5,5,0,0,1,59,85.14c.43,3.29.77,6.59,1.13,9.88a1.8,1.8,0,0,1-1.75,2.19l-1.54.18.12,1c.28,2.49.57,5,.84,7.46A1.75,1.75,0,0,1,56,108.09c-2.74.32-5.47.63-8.21.93a1.76,1.76,0,0,1-2.24-1.76c-.3-2.45-.56-4.91-.84-7.36C44.67,99.56,44.63,99.23,44.58,98.78Zm11.83-4.91c-.27-2.36-.52-4.6-.77-6.83-.33-2.88-.53-3.06-3.39-2.72-1,.11-1.79,0-2.24-.94a1.84,1.84,0,0,1,.57-2.27A2.16,2.16,0,0,0,51,78.59a2.32,2.32,0,0,0-2-1.47,2.72,2.72,0,0,0-2.89,1.61c-.44,1.13-.07,2.1,1.13,3A1.77,1.77,0,0,1,46.48,85l-1.12.13c-1.81.21-2.24.76-2,2.6.22,2,.45,4,.67,6l.19,1.6,1.16-.13c1.78-.2,2.38.29,2.58,2.09q.38,3.21.73,6.43l.19,1.67,5.25-.59-.12-1q-.4-3.54-.8-7.08c-.2-1.76.31-2.39,2.1-2.6Z"/><path class="cls-1" d="M78.56,95.05c-.65.08-1.14.15-1.64.19a1.71,1.71,0,0,1-2-1.59c-.41-3.42-.82-6.83-1.16-10.26-.21-2.1.76-3.62,3.14-5.15-.92-2.74-.48-5.2,1.88-7a5.9,5.9,0,0,1,6.7-.67C88,71.83,89,74,88.66,76.9l.77.28a5,5,0,0,1,3.51,4.24c.44,3.29.78,6.59,1.14,9.88a1.8,1.8,0,0,1-1.75,2.19l-1.54.18.12,1c.28,2.48.57,5,.84,7.46A1.75,1.75,0,0,1,90,104.37c-2.74.32-5.47.63-8.21.93a1.76,1.76,0,0,1-2.24-1.76c-.3-2.45-.56-4.91-.84-7.36C78.65,95.84,78.61,95.5,78.56,95.05Zm11.83-4.9c-.27-2.37-.52-4.6-.77-6.83-.33-2.88-.53-3.06-3.4-2.72A1.92,1.92,0,0,1,84,79.66a1.84,1.84,0,0,1,.57-2.27A2.18,2.18,0,0,0,85,74.87a2.34,2.34,0,0,0-2-1.48A2.73,2.73,0,0,0,80.11,75c-.44,1.12-.07,2.1,1.12,2.95a1.69,1.69,0,0,1,.82,1.92,1.72,1.72,0,0,1-1.59,1.36l-1.12.13c-1.81.21-2.24.75-2,2.6s.45,4,.67,6l.18,1.61,1.16-.13c1.78-.2,2.38.28,2.59,2.08.25,2.15.49,4.29.73,6.44l.19,1.67,5.25-.59L88,100q-.4-3.54-.8-7.08c-.2-1.77.31-2.39,2.1-2.6Z"/><path class="cls-1" d="M90.7,52.42c-.65.07-1.15.15-1.64.18A1.71,1.71,0,0,1,87,51c-.4-3.42-.81-6.84-1.15-10.26-.21-2.1.76-3.62,3.14-5.15-.92-2.74-.48-5.2,1.88-7a5.92,5.92,0,0,1,6.7-.66c2.53,1.3,3.52,3.5,3.21,6.37l.77.28a5,5,0,0,1,3.51,4.24c.44,3.28.78,6.58,1.14,9.88a1.81,1.81,0,0,1-1.75,2.19l-1.54.17.11,1q.43,3.73.85,7.46a1.76,1.76,0,0,1-1.78,2.23c-2.73.32-5.47.63-8.2.93a1.76,1.76,0,0,1-2.24-1.76c-.3-2.45-.57-4.91-.84-7.37C90.79,53.21,90.75,52.87,90.7,52.42Zm11.83-4.9c-.27-2.37-.52-4.6-.78-6.83-.32-2.88-.53-3.06-3.39-2.72A1.91,1.91,0,0,1,96.13,37a1.83,1.83,0,0,1,.56-2.26,2.19,2.19,0,0,0,.46-2.52,2.35,2.35,0,0,0-2-1.48,2.73,2.73,0,0,0-2.9,1.61,2.34,2.34,0,0,0,1.13,3,1.71,1.71,0,0,1,.82,1.93,1.74,1.74,0,0,1-1.6,1.36l-1.11.13c-1.81.2-2.24.75-2,2.6s.45,4,.68,6l.18,1.61,1.16-.14c1.78-.19,2.38.29,2.59,2.09q.36,3.22.73,6.43L95,59l5.24-.6-.11-1-.81-7.09c-.19-1.76.32-2.38,2.11-2.59Z"/><path class="cls-1" d="M56.66,58.23c-.65.07-1.14.14-1.64.18a1.7,1.7,0,0,1-2-1.58c-.41-3.42-.81-6.84-1.16-10.26-.21-2.11.77-3.63,3.14-5.15-.92-2.75-.47-5.2,1.88-7.05a5.94,5.94,0,0,1,6.7-.67c2.54,1.3,3.53,3.51,3.22,6.38l.77.27a5,5,0,0,1,3.51,4.24c.44,3.29.77,6.59,1.13,9.89a1.79,1.79,0,0,1-1.75,2.18c-.46.07-.93.11-1.54.18l.12,1c.28,2.49.57,5,.84,7.46a1.75,1.75,0,0,1-1.77,2.22c-2.74.32-5.47.63-8.21.93a1.76,1.76,0,0,1-2.24-1.75c-.29-2.46-.56-4.91-.84-7.37C56.75,59,56.71,58.68,56.66,58.23Zm11.83-4.91c-.26-2.36-.52-4.59-.77-6.83-.33-2.88-.53-3.05-3.39-2.72a1.92,1.92,0,0,1-2.24-.94,1.84,1.84,0,0,1,.57-2.27A2.18,2.18,0,0,0,63.12,38a2.34,2.34,0,0,0-2-1.47,2.72,2.72,0,0,0-2.89,1.61c-.44,1.13-.07,2.11,1.13,3a1.77,1.77,0,0,1-.78,3.28l-1.12.13c-1.81.21-2.24.76-2,2.6s.45,4,.68,6l.18,1.6,1.16-.13c1.78-.19,2.38.29,2.58,2.09.25,2.14.49,4.29.73,6.43l.19,1.68,5.25-.6-.12-1.05q-.41-3.54-.8-7.08c-.2-1.76.31-2.39,2.1-2.6Z"/><path class="cls-1" d="M109.12,90c-.65.07-1.14.14-1.64.18a1.7,1.7,0,0,1-2-1.58c-.41-3.42-.82-6.84-1.16-10.26-.21-2.1.76-3.62,3.14-5.15-.92-2.75-.48-5.2,1.88-7a5.92,5.92,0,0,1,6.7-.66c2.53,1.29,3.53,3.5,3.21,6.37l.78.27a5,5,0,0,1,3.51,4.25c.43,3.28.77,6.58,1.13,9.88a1.8,1.8,0,0,1-1.75,2.19l-1.54.17.12,1c.28,2.49.57,5,.84,7.46a1.76,1.76,0,0,1-1.77,2.23c-2.74.32-5.47.63-8.21.93a1.76,1.76,0,0,1-2.24-1.76c-.3-2.45-.56-4.91-.84-7.37C109.21,90.77,109.17,90.43,109.12,90ZM121,85.08c-.27-2.37-.52-4.6-.77-6.84-.33-2.88-.53-3-3.4-2.72a1.9,1.9,0,0,1-2.23-.94,1.84,1.84,0,0,1,.57-2.27,2.17,2.17,0,0,0,.45-2.51,2.33,2.33,0,0,0-2-1.48,2.71,2.71,0,0,0-2.89,1.61c-.44,1.13-.07,2.11,1.13,2.95a1.7,1.7,0,0,1,.81,1.93A1.72,1.72,0,0,1,111,76.17l-1.12.13c-1.81.2-2.24.75-2,2.6s.45,4,.67,6l.19,1.6,1.16-.13c1.78-.19,2.38.29,2.58,2.09.25,2.14.49,4.29.73,6.43l.19,1.68,5.25-.6-.12-1q-.4-3.56-.8-7.09c-.2-1.76.31-2.39,2.1-2.59Z"/><path class="cls-1" d="M88.46,125.42h5v-5h5.08v5h5v5h-5v5h-5v-4.93h-5Z"/><path class="cls-1" d="M0,129.52H5v-5H10v5h5v5H10.07v5H5v-4.93H0Z"/><path class="cls-1" d="M111.46,28.2h5v-5h5.08v5h5v5h-5v5h-5V33.31h-5Z"/><path class="cls-1" d="M16.48,5h4.95V0h5.08V5h5v5H26.55v5h-5V10.08h-5Z"/><path class="cls-1" d="M135.2,126h-6.42v-6.55h6.42Z"/><path class="cls-1" d="M155.11,111.87h-6.42v-6.55h6.42Z"/><path class="cls-1" d="M76.92,6.54H70.49V0h6.43Z"/><path class="cls-1" d="M37.92,41.52H31.49V35h6.43Z"/></g></g></svg>