<svg xmlns="http://www.w3.org/2000/svg" viewBox="0 0 151.13 135.34"><defs><style>.cls-1{fill:#fff;}</style></defs><title>ico-drogas</title><g id="Layer_2" data-name="Layer 2"><g id="Layer_1-2" data-name="Layer 1"><path class="cls-1" d="M40.59,85.81c-1.91,2.26-3.78,4.49-5.65,6.72L25,104.37c-.86,1-1.66,1.19-2.44.52s-.72-1.6.07-2.52q7.72-9,15.46-18l.51-.62a6.62,6.62,0,0,1-.76-.62,2.59,2.59,0,0,1,0-3.68c.78-.87,1.55-1.74,2.35-2.6a.84.84,0,0,0,.23-.94,4,4,0,0,1,.83-4Q55.68,54.78,70.07,37.61c.28-.32.55-.65.83-1-.72-.73-1.39-1.43-2.1-2.1a1.22,1.22,0,0,1-.2-1.82,1.26,1.26,0,0,1,1.89-.22c1.27,1,2.51,2.05,3.76,3.08l.41.33L84.73,23.8l-1.85-1.55a1.61,1.61,0,0,1-.27-2.35,1.5,1.5,0,0,1,2.28,0l10.56,8.9a1.53,1.53,0,0,1,.43,2.15,1.28,1.28,0,0,1-2,.33c-.36-.28-.7-.58-1-.87l-1-.87L81.72,41.63c1.31,1.11,2.55,2.18,3.82,3.22a1.64,1.64,0,0,1,.66,1.63,1.47,1.47,0,0,1-2.47.89c-.78-.62-1.52-1.29-2.44-2.07a2.6,2.6,0,0,1-.28.49L51.33,81.14a3.82,3.82,0,0,1-3.24,1.36,1,1,0,0,0-.71.28c-.86.9-1.68,1.83-2.51,2.76-1.17,1.31-2.16,1.48-3.72.6Zm32.7-47.18-.59.68L49.37,67.1,43.62,74a1.13,1.13,0,0,0-.06,1.59q2.28,1.84,4.58,3.67a.54.54,0,0,0,.9-.13,6.68,6.68,0,0,1,.66-.75l4-4.34c-1-.89-2-1.74-3-2.64a2.29,2.29,0,0,1-.66-1.13A1.35,1.35,0,0,1,51,68.71a1.51,1.51,0,0,1,1.84.31c.87.85,1.7,1.72,2.6,2.63l3-3.38-2.71-2.42a1.71,1.71,0,0,1-.36-2.55c.65-.71,1.44-.65,2.38.19l2.72,2.41,2.69-3.7c-.94-.74-1.85-1.43-2.74-2.14a1.54,1.54,0,0,1-.31-2.36c.65-.81,1.38-.81,2.26,0l2.82,2.5,3-3.7c-1-.79-2-1.51-2.89-2.27a2.45,2.45,0,0,1-.71-1,1.45,1.45,0,0,1,.65-1.67,1.21,1.21,0,0,1,1.62.18l3,2.68,3-3.68c-.21-.17-.36-.31-.53-.44-.84-.66-1.7-1.32-2.53-2a1.38,1.38,0,0,1-.53-1.53,1.36,1.36,0,0,1,1.24-1.12,2.47,2.47,0,0,1,1.48.5c1,.76,1.91,1.65,2.91,2.53l4-5.38ZM87.1,25.82,77,37.61l2.36,2,10.1-11.79ZM42.56,78.46l-2.24,2.89,2.34,2,2.27-2.6Z"/><path class="cls-1" d="M76.15,82.17c3.16-1.45,6.32-2.88,9.47-4.34,2.54-1.19,5-1.15,7.16.7A7.43,7.43,0,0,1,95.45,86a6,6,0,0,1-3.53,4.39c-6.65,3.08-13.31,6.18-20,9.14-3.25,1.43-6.64,0-8.39-3.15-1.9-3.44-1.35-6.88,1.48-8.91a13.08,13.08,0,0,1,2.16-1.14C70.15,84.9,73.15,83.54,76.15,82.17ZM78,85.73l2.45,5.35a1.38,1.38,0,0,0,.35,0c3.13-1.42,6.27-2.81,9.37-4.29a3,3,0,0,0-2.55-5.39c-1.44.61-2.84,1.28-4.26,1.93Z"/><path class="cls-1" d="M64.76,105c3.43,0,6.87,0,10.31,0,3.25,0,5.4,1.4,6.41,4.11a7.85,7.85,0,0,1-1.8,8.34A6,6,0,0,1,75.61,119c-7.3,0-14.6,0-21.9,0-3.89,0-6.56-2.94-6.56-7s2.65-6.93,6.55-7c3.68-.06,7.37,0,11.06,0Zm.07,4c-3.66,0-7.23,0-10.79,0a3,3,0,1,0,0,6c3.36,0,6.73,0,10.09,0a7.22,7.22,0,0,0,.75-.07Z"/><path class="cls-1" d="M16.39,4.69H7.9c-2,0-3-.78-3.07-2.27S5.89,0,7.91,0H141.27c2.35,0,3.45.73,3.49,2.29s-1.08,2.4-3.5,2.4h-8.07v126h6.43c1.72,0,2.76.85,2.82,2.25s-1,2.39-2.8,2.44H10.9a13.19,13.19,0,0,1-1.54,0,2.35,2.35,0,0,1-2.21-2.43,2.32,2.32,0,0,1,2.42-2.22c2.24,0,4.47,0,6.82,0ZM35,130.6V4.78H21.24V130.6ZM39.9,4.76V130.53H53.74V4.76Zm18.71,0V130.55H72.37V4.73ZM91,130.6V4.78H77.22V130.6Zm37.37,0V4.77h-13.8V56h5.8c2.75,0,3.42.65,3.42,3.35V76c0,2.71-.67,3.37-3.41,3.37h-5.79V130.6Zm-18.66,0V79.35c-2.12,0-4.16,0-6.2,0-2.28,0-3-.75-3-3q0-8.68,0-17.35c0-2.26.75-3,3-3h6.16V4.76H95.86V130.58ZM119,60.76H105.21V74.58H119Z"/><path class="cls-1" d="M138.4,116.2h4.2V112h4.3v4.21h4.23v4.26h-4.19v4.26h-4.27v-4.19H138.4Z"/><path class="cls-1" d="M117,11.53h2.1V9.43h2.16v2.11h2.11v2.12h-2.1v2.13h-2.13V13.7H117Z"/><path class="cls-1" d="M0,99.51H2.85V96.65H5.77v2.86H8.64v2.89H5.79v2.89H2.9v-2.84H0Z"/><path class="cls-1" d="M30.17,15.79H26.06V11.61h4.11Z"/><path class="cls-1" d="M12.75,42.81H8.64V38.63h4.11Z"/><path class="cls-1" d="M146.82,44.91h-4.11V40.72h4.11Z"/><path class="cls-1" d="M30.18,49.21H26.07V45h4.11Z"/></g></g></svg>