<svg xmlns="http://www.w3.org/2000/svg" viewBox="0 0 175.82 150.62"><defs><style>.cls-1,.cls-2{fill:#fff;}.cls-2{stroke:#fff;stroke-miterlimit:10;}</style></defs><title>ico-sexo</title><g id="Layer_2" data-name="Layer 2"><g id="Layer_1-2" data-name="Layer 1"><path class="cls-1" d="M68.48,144H61.82v-2c0-6.75,0-13.49,0-20.24a20.45,20.45,0,0,0-4-12.38c-1.81-2.52-3.55-5.09-5.41-7.57-5.41-7.2-6.85-15.14-4.89-23.87,2.21-9.83,4.26-19.69,6.37-29.54A10.11,10.11,0,0,1,64.38,40c2.6,0,5.2.18,8,.28a5.3,5.3,0,0,0,.24-.52,9.92,9.92,0,0,1,9.61-6.48q9.86-.11,19.7,0A9.74,9.74,0,0,1,111,38.8a1.78,1.78,0,0,0,1.9,1.18c1.85-.09,3.7,0,5.55,0,6.11,0,10.37,4.19,10.49,10.31.07,3.81.05,7.64,0,11.46A2.21,2.21,0,0,0,130.24,64a19.7,19.7,0,0,1,3.32,32c-4.67,4.27-9.41,8.45-14.17,12.62a10.84,10.84,0,0,0-3.86,8.67c.06,8.24,0,16.48,0,24.71v2H108.9c0-.63-.09-1.2-.09-1.78q0-12.61,0-25.25a17.09,17.09,0,0,1,6.09-13.39c4.72-4.13,9.42-8.27,14-12.49,4.24-3.87,5.67-8.67,3.81-14.13s-5.77-8.48-11.44-8.79a12.29,12.29,0,0,0-6.69,1.35,29,29,0,0,1-18.08,4.11,3.89,3.89,0,0,0-4.49,3.61c-.21,2.13,1.16,3.8,3.63,4.34,2.68.58,5.36,1.18,8.06,1.62a5,5,0,0,0,2.55-.4c1.47-.6,2.87-1.39,4.39-2.15l3,6c-2.5,1.22-4.76,2.65-7.23,3.39a9.25,9.25,0,0,1-4.87-.45,5.8,5.8,0,0,0-5.33,1.15,13.83,13.83,0,0,0-5.47,8.52L84.5,98.21c-.11-3.1,1.85-6.89,5.52-11-1.41-2.1-3.22-4-4-6.19s-.46-4.75-.65-7.42H84c-6,0-11.94,0-17.91,0-2.65,0-3.51-.62-4.34-3.08-1-3-2-6.09-3.11-9.29L65,59.08c.9,2.63,1.77,5.14,2.64,7.68h4.16c0-.52.1-1,.1-1.54q0-7.26,0-14.51c0-2.84-1.18-4-4-4H64.43c-2.38,0-3.46.89-4,3.26Q58.27,60.2,56.09,70.43c-.74,3.49-1.5,7-2.22,10.49a19.74,19.74,0,0,0,3.25,15.83q3,4.32,6.13,8.59a27.44,27.44,0,0,1,5.32,16.57v20.24C68.57,142.73,68.52,143.31,68.48,144ZM88.57,66.73V40H82.76c-3,0-4.12,1.17-4.12,4.12q0,10.58,0,21.13c0,.51.07,1,.1,1.52Zm7,.08c3,0,5.91,0,8.81-.07.4,0,1.1-.87,1.11-1.35q.1-11,0-22a3,3,0,0,0-2.7-3.29c-2.4-.23-4.83-.06-7.25-.06Zm26.75-5.58c0-3.84,0-7.58,0-11.32a2.9,2.9,0,0,0-2.52-3.06c-2.45-.24-4.94-.06-7.39-.06V62.87c1.67-.43,3.19-.94,4.76-1.2S120.4,61.38,122.28,61.23Z"/><path class="cls-1" d="M146.07,126.81a10.79,10.79,0,1,1,9-19.32l7.24-7.19H158V96.81a3.09,3.09,0,0,1,.53-.09c2.74,0,5.47,0,8.21,0a1.75,1.75,0,0,1,1.94,1.87c0,2.9,0,5.79,0,8.77h-3.56v-4.11l-7.19,7.19a10.6,10.6,0,0,1,1.08,9.81l3.22,1.53,7.16-7.15h-4.26V111h2c2.26,0,4.52,0,6.78,0a1.67,1.67,0,0,1,1.89,1.7c0,3,0,5.92,0,9h-3.49v-4.06l-7.2,7.18a10.76,10.76,0,0,1-1.82,13.89A10.71,10.71,0,0,1,150.71,140C146.2,137.28,144.6,132.77,146.07,126.81Zm10.08,11a7.11,7.11,0,0,0,1.53-14.06,1.59,1.59,0,0,0-1.24.34,11.53,11.53,0,0,1-5.72,2.87,1.76,1.76,0,0,0-1.09.85A7.09,7.09,0,0,0,156.15,137.85Zm0-21.43a7.17,7.17,0,0,0-14.3-.82,7.14,7.14,0,0,0,5.59,7.75,1.18,1.18,0,0,0,1.25-.36,8.89,8.89,0,0,1,4.95-2.68,2.4,2.4,0,0,0,2.27-2.29C156,117.49,156.09,117,156.17,116.42Z"/><path class="cls-1" d="M45.18,24.16v8.9h3.39v3.56h-3.4v3.46H41.66V36.69H38.15V33.1h3.41V24.42l-5.41-2.61c-.65.4-1.44,1-2.3,1.4s-1.75.66-2.73,1v8.85h3.34v3.56H31c0,.94,0,1.81,0,2.67,0,.63-.13.92-.82.88-.87,0-1.74,0-2.71,0V36.65H24V33.13h3.42v-9a10.57,10.57,0,0,1-8.17-7A10.18,10.18,0,0,1,20,8.69,10.64,10.64,0,0,1,36.32,5.77c4-3.08,8.3-3.67,12.66-1,3.85,2.39,5.41,6.06,4.82,10.54C53.36,18.69,51,22.84,45.18,24.16Zm-1.8-3.4a7,7,0,1,0-4.21-12.7c-.4.3-.66.53-.38,1.14a10.19,10.19,0,0,1,0,9,.74.74,0,0,0,.3,1.08A7.12,7.12,0,0,0,43.38,20.76ZM34.07,8.64a6.94,6.94,0,0,0-10,.3A7,7,0,0,0,24.63,19c2.72,2.42,7.19,2.3,9.42-.27A10.61,10.61,0,0,1,34.07,8.64Z"/><path class="cls-1" d="M150.21,66.8h6.57V60.22h6.74v6.6h6.61v6.66h-6.56v6.65h-6.68V73.59h-6.68Z"/><path class="cls-1" d="M108.9,19.9h-6.62V13.36H95.59V6.65h6.52V0h6.76V6.52h6.55v6.72H108.9Z"/><path class="cls-1" d="M31.41,71.56h-6.5V65h6.5Z"/><path class="cls-1" d="M147.48,43.46h-6.42V36.91h6.42Z"/><path class="cls-1" d="M48.29,144.23v6.39H41.85v-6.39Z"/><path class="cls-1" d="M166.74,13.51V19.9h-6.57V13.51Z"/><path class="cls-2" d="M29,94.18l.06,11.12A11,11,0,0,1,38,112.16a11.08,11.08,0,0,1-1.45,11.15l3,3,.57-.57c.47-.47.92-.94,1.39-1.39a1.4,1.4,0,1,1,2,2c-.63.65-1.28,1.28-2,2l.82.82c.35.35.71.7,1.06,1.06a1.41,1.41,0,1,1-2,2l-1.79-1.78-.13-.09-1.43,1.43c-.16.17-.33.34-.5.5a1.4,1.4,0,1,1-2-2c.63-.64,1.27-1.27,1.93-1.93l-3-3a11,11,0,0,1-11.16,1.44,10.93,10.93,0,0,1-6.83-8.86H13.21c0,.8,0,1.64,0,2.48a1.4,1.4,0,0,1-2.13,1.21,1.35,1.35,0,0,1-.67-1.25c0-.81,0-1.62,0-2.36h-5s.08.1.17.19c.42.42.85.83,1.25,1.26a1.38,1.38,0,0,1,0,1.94,1.36,1.36,0,0,1-1.94,0c-1.35-1.32-2.7-2.67-4-4a1.36,1.36,0,0,1,0-1.94q2-2,4-4a1.36,1.36,0,0,1,1.94,0,1.38,1.38,0,0,1,0,2c-.49.51-1,1-1.49,1.5h5v-1.12c0-.45,0-.9,0-1.35a1.4,1.4,0,0,1,2.8,0c0,.68,0,1.37,0,2,0,.15,0,.31,0,.41h3.33a11.18,11.18,0,0,1,9.59-9.59V94.17c-.47.47-1,1-1.47,1.46a1.39,1.39,0,0,1-2.28-.47,1.32,1.32,0,0,1,.28-1.48c1.33-1.35,2.68-2.69,4-4a1.33,1.33,0,0,1,1.9,0q2,2,4,4a1.4,1.4,0,0,1-2,2c-.5-.48-1-1-1.48-1.48ZM21.7,122.35a8.41,8.41,0,1,0,.06-11.89A8.42,8.42,0,0,0,21.7,122.35Z"/><path class="cls-1" d="M68.58,127.87V125H108.8v2.9Z"/><path class="cls-1" d="M108.8,131.51H68.58v-2.84H108.8Z"/><path class="cls-1" d="M108.81,132.29v2.86H68.58v-2.86Z"/><path class="cls-1" d="M108.81,117.72v2.83H68.58v-2.83Z"/><path class="cls-1" d="M68.57,124.18v-2.83H108.8v2.83Z"/><path class="cls-1" d="M68.57,138.79V136H108.8v2.83Z"/></g></g></svg>