<?xml version="1.0" encoding="utf-8"?>
<!-- Generator: Adobe Illustrator 23.1.1, SVG Export Plug-In . SVG Version: 6.00 Build 0)  -->
<svg version="1.1" id="Lager_1" xmlns="http://www.w3.org/2000/svg" xmlns:xlink="http://www.w3.org/1999/xlink" x="0px" y="0px"
	 viewBox="0 0 185.3 80.3" style="enable-background:new 0 0 185.3 80.3;" xml:space="preserve">
<style type="text/css">
	.st0{fill:#FFFFFF;}
	.st1{fill:#B4DBCA;}
	.st2{fill:#ECE562;}
	.st3{fill:#878787;}
</style>
<g>
	<g>
		<path class="st0" d="M20.6,62.5H27c1,0,1.8,0.1,2.6,0.4c0.8,0.2,1.5,0.6,2.1,1c0.6,0.5,1,1,1.3,1.7s0.5,1.4,0.5,2.3V68
			c0,0.9-0.2,1.7-0.6,2.4c-0.4,0.7-0.9,1.3-1.5,1.8s-1.4,0.8-2.2,1c-0.8,0.2-1.7,0.3-2.6,0.3h-4.7V80h-1.3
			C20.6,80,20.6,62.5,20.6,62.5z M26.7,72.3c0.8,0,1.6-0.1,2.2-0.3c0.7-0.2,1.2-0.5,1.7-0.9s0.8-0.8,1.1-1.4
			c0.3-0.5,0.4-1.1,0.4-1.8l0,0c0-0.7-0.1-1.3-0.4-1.8s-0.6-1-1.1-1.3c-0.5-0.4-1-0.6-1.7-0.8c-0.6-0.2-1.4-0.3-2.1-0.3h-5v8.6H26.7
			z"/>
		<path class="st0" d="M41.3,80.3c-0.8,0-1.6-0.2-2.4-0.5s-1.4-0.8-2-1.4s-1-1.3-1.4-2.1c-0.3-0.8-0.5-1.7-0.5-2.7v-0.1
			c0-0.9,0.2-1.8,0.5-2.6c0.3-0.8,0.7-1.5,1.3-2.1c0.5-0.6,1.2-1.1,1.9-1.4c0.7-0.3,1.5-0.5,2.4-0.5s1.7,0.2,2.4,0.5
			c0.7,0.3,1.3,0.8,1.8,1.4s0.9,1.3,1.2,2.1c0.3,0.8,0.4,1.7,0.4,2.6c0,0.1,0,0.2,0,0.3c0,0.1,0,0.1,0,0.2H36.3
			c0,0.8,0.2,1.5,0.5,2.1s0.7,1.1,1.1,1.6c0.5,0.4,1,0.8,1.5,1c0.6,0.2,1.2,0.3,1.8,0.3c1,0,1.9-0.2,2.5-0.6
			c0.7-0.4,1.3-0.9,1.8-1.4l0.9,0.8c-0.7,0.7-1.4,1.3-2.2,1.7C43.5,80.1,42.5,80.3,41.3,80.3z M45.6,73.1c-0.1-0.7-0.2-1.3-0.4-1.9
			c-0.2-0.6-0.5-1.1-0.9-1.6s-0.8-0.8-1.4-1.1c-0.6-0.3-1.2-0.4-1.9-0.4c-0.6,0-1.2,0.1-1.8,0.4c-0.6,0.2-1,0.6-1.4,1s-0.7,1-1,1.6
			s-0.4,1.3-0.5,2H45.6z"/>
		<path class="st0" d="M54.2,80.3c-0.6,0-1.2-0.1-1.8-0.2c-0.6-0.2-1.1-0.4-1.6-0.8c-0.5-0.3-0.8-0.8-1.1-1.2
			c-0.3-0.5-0.4-1.1-0.4-1.8l0,0c0-0.7,0.1-1.3,0.4-1.8s0.7-0.9,1.1-1.3c0.5-0.3,1.1-0.6,1.8-0.8c0.7-0.2,1.4-0.3,2.3-0.3
			s1.7,0.1,2.3,0.2c0.7,0.1,1.3,0.2,1.9,0.4v-0.5c0-1.3-0.4-2.3-1.1-2.9s-1.8-1-3.1-1c-0.8,0-1.5,0.1-2.1,0.3
			c-0.6,0.2-1.3,0.4-1.9,0.7l-0.5-1.1c0.7-0.3,1.4-0.6,2.1-0.8c0.7-0.2,1.5-0.3,2.4-0.3c1.8,0,3.1,0.5,4,1.4s1.3,2.1,1.3,3.6v8H59
			V78c-0.2,0.3-0.5,0.6-0.8,0.9s-0.7,0.5-1.1,0.8c-0.4,0.2-0.9,0.4-1.4,0.6C55.3,80.3,54.8,80.3,54.2,80.3z M54.2,79.2
			c0.6,0,1.3-0.1,1.9-0.3c0.6-0.2,1.1-0.5,1.5-0.8s0.8-0.8,1-1.2c0.3-0.5,0.4-1,0.4-1.6v-1.4c-0.5-0.1-1.2-0.3-1.9-0.4
			c-0.7-0.1-1.5-0.2-2.5-0.2c-1.4,0-2.4,0.3-3.1,0.8s-1.1,1.3-1.1,2.2l0,0c0,0.5,0.1,0.9,0.3,1.2c0.2,0.4,0.5,0.7,0.8,0.9
			c0.3,0.2,0.7,0.4,1.2,0.6C53.3,79.1,53.8,79.2,54.2,79.2z"/>
		<path class="st0" d="M69.6,80.3c-0.9,0-1.8-0.2-2.6-0.5c-0.8-0.4-1.5-0.8-2.1-1.4c-0.6-0.6-1-1.3-1.4-2.1
			c-0.3-0.8-0.5-1.6-0.5-2.5l0,0c0-0.9,0.2-1.8,0.5-2.5c0.3-0.8,0.8-1.5,1.4-2.1c0.6-0.6,1.3-1.1,2.1-1.5c0.8-0.4,1.6-0.5,2.6-0.5
			c0.6,0,1.1,0.1,1.6,0.2s0.9,0.3,1.4,0.5c0.4,0.2,0.8,0.5,1.1,0.8c0.3,0.3,0.7,0.6,1,0.9l-0.9,0.7c-0.5-0.6-1.2-1.1-1.8-1.5
			c-0.7-0.4-1.5-0.6-2.4-0.6c-0.7,0-1.4,0.1-2,0.4c-0.6,0.3-1.2,0.7-1.6,1.2c-0.5,0.5-0.8,1.1-1.1,1.7c-0.3,0.7-0.4,1.4-0.4,2.1l0,0
			c0,0.8,0.1,1.5,0.4,2.2s0.6,1.3,1.1,1.8s1,0.9,1.7,1.2c0.6,0.3,1.3,0.4,2,0.4c0.9,0,1.7-0.2,2.4-0.6s1.3-0.9,1.9-1.5l0.9,0.8
			c-0.6,0.7-1.4,1.3-2.2,1.8C71.8,80.1,70.8,80.3,69.6,80.3z"/>
		<path class="st0" d="M83.2,80.3c-0.8,0-1.6-0.2-2.4-0.5s-1.4-0.8-2-1.4c-0.6-0.6-1-1.3-1.4-2.1c-0.3-0.8-0.5-1.7-0.5-2.7v-0.1
			c0-0.9,0.2-1.8,0.5-2.6c0.3-0.8,0.7-1.5,1.3-2.1c0.5-0.6,1.2-1.1,1.9-1.4c0.7-0.3,1.5-0.5,2.4-0.5c0.9,0,1.7,0.2,2.4,0.5
			c0.7,0.3,1.3,0.8,1.8,1.4s0.9,1.3,1.2,2.1c0.3,0.8,0.4,1.7,0.4,2.6c0,0.1,0,0.2,0,0.3c0,0.1,0,0.1,0,0.2H78.2
			c0,0.8,0.2,1.5,0.5,2.1s0.7,1.1,1.1,1.6c0.5,0.4,1,0.8,1.5,1c0.6,0.2,1.2,0.3,1.8,0.3c1,0,1.9-0.2,2.5-0.6
			c0.7-0.4,1.3-0.9,1.8-1.4l0.9,0.8c-0.7,0.7-1.4,1.3-2.2,1.7C85.5,80.1,84.4,80.3,83.2,80.3z M87.6,73.1c-0.1-0.7-0.2-1.3-0.4-1.9
			s-0.5-1.1-0.9-1.6s-0.8-0.8-1.4-1.1c-0.6-0.3-1.2-0.4-1.9-0.4c-0.6,0-1.2,0.1-1.8,0.4c-0.6,0.2-1,0.6-1.4,1c-0.4,0.4-0.7,1-1,1.6
			s-0.4,1.3-0.5,2H87.6z"/>
		<path class="st0" d="M90.1,62.5h1.5l5.5,15.6l5.1-15.6h1l5.1,15.6l5.5-15.6h1.3l-6.3,17.6h-1.1l-5.1-15.2l-5.1,15.2h-1L90.1,62.5z
			"/>
		<path class="st0" d="M121.7,80.3c-1,0-1.8-0.2-2.6-0.5c-0.8-0.4-1.5-0.8-2.1-1.4s-1-1.3-1.4-2.1c-0.3-0.8-0.5-1.6-0.5-2.5l0,0
			c0-0.9,0.2-1.8,0.5-2.5c0.3-0.8,0.8-1.5,1.4-2.1c0.6-0.6,1.3-1.1,2.1-1.5s1.7-0.5,2.6-0.5c1,0,1.8,0.2,2.6,0.5
			c0.8,0.4,1.5,0.8,2.1,1.4s1,1.3,1.4,2.1c0.3,0.8,0.5,1.6,0.5,2.5l0,0c0,0.9-0.2,1.8-0.5,2.5c-0.3,0.8-0.8,1.5-1.4,2.1
			c-0.6,0.6-1.3,1.1-2.1,1.5S122.6,80.3,121.7,80.3z M121.7,79.2c0.8,0,1.5-0.1,2.1-0.4s1.2-0.7,1.7-1.2s0.8-1.1,1.1-1.7
			c0.3-0.7,0.4-1.4,0.4-2.1l0,0c0-0.8-0.1-1.5-0.4-2.2c-0.3-0.7-0.6-1.3-1.1-1.8s-1-0.9-1.7-1.2c-0.6-0.3-1.3-0.4-2.1-0.4
			s-1.5,0.1-2.1,0.4s-1.2,0.7-1.7,1.2s-0.8,1.1-1.1,1.7c-0.3,0.7-0.4,1.4-0.4,2.1l0,0c0,0.8,0.1,1.5,0.4,2.2
			c0.3,0.7,0.6,1.3,1.1,1.8s1,0.9,1.7,1.2C120.3,79,121,79.2,121.7,79.2z"/>
		<path class="st0" d="M131.3,67.3h1.2v3.6c0.2-0.6,0.6-1.1,1-1.6s0.8-0.9,1.3-1.2s1-0.6,1.6-0.8c0.6-0.2,1.2-0.3,1.8-0.2v1.4h-0.1
			c-0.7,0-1.4,0.1-2.1,0.4c-0.7,0.3-1.3,0.7-1.8,1.2s-0.9,1.2-1.2,2s-0.5,1.7-0.5,2.7V80h-1.2V67.3z"/>
		<path class="st0" d="M141.1,61.8h1.2v13.7l7.9-8.2h1.6l-5.6,5.7l5.8,7.1h-1.6l-5-6.2l-3.1,3.1v3.1h-1.2L141.1,61.8L141.1,61.8z"/>
		<path class="st0" d="M159.1,80.3c-0.9,0-1.9-0.2-2.8-0.5c-0.9-0.3-1.7-0.8-2.4-1.4l0.7-1c0.7,0.5,1.4,0.9,2.2,1.2
			c0.8,0.3,1.6,0.4,2.4,0.4c0.9,0,1.6-0.2,2.2-0.6c0.6-0.4,0.9-1,0.9-1.8l0,0c0-0.4-0.1-0.7-0.3-0.9c-0.2-0.3-0.4-0.5-0.8-0.7
			c-0.3-0.2-0.7-0.4-1.1-0.5c-0.4-0.1-0.8-0.3-1.3-0.4s-1-0.3-1.6-0.5c-0.5-0.2-1-0.4-1.4-0.6c-0.4-0.3-0.8-0.6-1-1
			c-0.3-0.4-0.4-0.9-0.4-1.4l0,0c0-0.5,0.1-1,0.3-1.4s0.5-0.8,0.9-1.1c0.4-0.3,0.8-0.6,1.3-0.7c0.5-0.2,1.1-0.3,1.7-0.3
			c0.8,0,1.6,0.1,2.4,0.4c0.8,0.3,1.5,0.6,2.2,1l-0.7,1c-0.6-0.4-1.2-0.7-1.9-0.9c-0.7-0.2-1.4-0.4-2-0.4c-0.9,0-1.6,0.2-2.1,0.6
			s-0.8,1-0.8,1.6l0,0c0,0.3,0.1,0.7,0.3,0.9c0.2,0.3,0.5,0.5,0.8,0.7s0.7,0.3,1.1,0.5c0.4,0.1,0.9,0.3,1.3,0.4
			c0.5,0.2,1,0.3,1.5,0.5s1,0.4,1.4,0.7c0.4,0.3,0.7,0.6,1,1c0.2,0.4,0.4,0.9,0.4,1.4v0.1c0,0.6-0.1,1.1-0.3,1.5
			c-0.2,0.5-0.5,0.8-0.9,1.2c-0.4,0.3-0.9,0.6-1.4,0.7C160.3,80.2,159.7,80.3,159.1,80.3z"/>
	</g>
	<g>
		<path class="st1" d="M106.7,0.4l-0.4-0.2L105.9,0l-0.2,0.4l-0.3,0.5c-12,14.1-12.9,43.5-13,48.5c-0.1,0-0.2,0-0.3,0
			c-0.2,0-0.4,0-0.6,0l0,0c-0.1-5-1-34.5-13-48.6l-0.2-0.3l-0.2-0.3l-0.3,0.2l-0.4,0.2c-7.8,4.2-12.6,13.1-12.6,23.1
			c0,15.2,12.3,27.5,27.5,27.5s27.5-12.3,27.5-27.5C119.5,14.2,114.7,5.5,106.7,0.4z"/>
		<path class="st2" d="M172.2,0.4l-0.4-0.2L171.4,0l-0.2,0.4l-0.3,0.5c-12,14.1-12.9,43.5-13,48.5c-0.1,0-0.2,0-0.3,0
			c-0.2,0-0.4,0-0.6,0l0,0c-0.1-5-1-34.5-13-48.6l-0.2-0.3l-0.2-0.3l-0.3,0.2l-0.4,0.2c-7.8,4.2-12.6,13.1-12.6,23.1
			c0,15.2,12.3,27.5,27.5,27.5s27.5-12.3,27.5-27.5C185,14.2,180.2,5.5,172.2,0.4z"/>
		<path class="st3" d="M42.1,0.4l-0.4-0.2L41.3,0l-0.2,0.3l-0.3,0.5c-12,14.1-12.9,43.5-13,48.5c-0.1,0-0.2,0-0.3,0
			c-0.2,0-0.4,0-0.6,0l0,0c-0.1-5-1-34.5-13-48.6l-0.2-0.3l-0.2-0.3L13,0.3l-0.4,0.2C4.8,4.8,0,13.6,0,23.7
			c0,15.2,12.3,27.5,27.5,27.5S55,38.9,55,23.7C55,14.2,50.2,5.5,42.1,0.4z"/>
	</g>
</g>
</svg>
