<?xml version="1.0" encoding="utf-8"?>
<!-- Generator: Adobe Illustrator 23.1.0, SVG Export Plug-In . SVG Version: 6.00 Build 0)  -->
<svg version="1.1" id="Layer_1" xmlns="http://www.w3.org/2000/svg" xmlns:xlink="http://www.w3.org/1999/xlink" x="0px" y="0px"
	 viewBox="0 0 392.8 291" style="enable-background:new 0 0 392.8 291;" xml:space="preserve">
<style type="text/css">
	.st0{fill:#FFFFFF;}
</style>
<g>
	<path class="st0" d="M256.6,235.3c0,0.2,0,0.5,0,0.7c-0.1,1.2-0.1,2.3-0.2,3.5c-0.6,11.5-1.2,23-5.5,33.7
		c-1.9,4.7-4.6,9.4-8.1,13.1c-6.2,6.4-14.6,5.2-20-2c-5.5-7.5-7.7-16.3-9-25.2c-3.1-20.7-3-41.5,1.5-62c1.5-6.8,3.8-13.4,8.7-18.6
		c5.1-5.5,12-5.8,17.5-0.8c6.4,5.8,9.4,13.5,10.9,21.6c1.1,6.2,2,12.5,2.8,18.7C255.9,223.9,256.8,229.5,256.6,235.3 M225.4,231
		c0,0.9,0.1,1.9,0.2,2.8c0.7,8.8,1.2,17.5,4.6,25.7c1.9,4.7,6,4.5,8.6,0c0.5-0.9,0.9-1.9,1.2-2.9c3.8-16,3.1-32.1-0.6-48
		c-0.8-3.2-2-7.2-6-7.1s-5.1,4.2-5.6,7.4c-1.1,6.6-2.2,13.6-2.4,20.3C225.4,229.9,225.4,230.5,225.4,231"/>
	<path class="st0" d="M291.6,275.9c-3.2-11-6.2-21.4-9.1-31.6c-3.9-0.5-5.3,0.8-5,4.6c0.6,9.1,0.8,18.2,1.3,27.3
		c0.2,2.7-0.5,4.1-3.3,4.6c-3.3,0.6-6.4,1.5-10.2,2.3c-1.2-35.9-2.4-71.2-3.6-107.6c9,0.4,17.7,0.4,26.3,1.4
		c4.5,0.5,7.8,4.2,9.5,8.4c6.5,16.8,7.8,33.6-1.2,50.1c-0.5,0.9-0.6,2.4-0.2,3.5c3.1,9.7,6.2,19.3,9.5,28.9c0.8,2.4,0.3,3.3-2,4
		C299.8,273,296,274.4,291.6,275.9 M276.2,221.8c3.1-0.3,5.2-0.5,7.2-0.8c2.9-0.4,5.2-2.1,5.3-5c0.3-4.2,0.1-8.5-0.4-12.6
		c-0.3-2.7-2.3-4.3-5.4-4.2c-7.1,0.1-7.1,0-6.9,7.2c0.1,2.2,0.1,4.4,0.2,6.6C276.2,215.7,276.2,218.5,276.2,221.8"/>
	<path class="st0" d="M116.7,281.5c-12.3-4.2-23.6-8-34.9-12c-0.9-0.3-1.9-2.1-1.8-3.2c0.9-18.8,1.9-37.6,2.9-56.4
		c0.5-10.4,1.2-20.7,1.6-31.1c0.1-2.8,1.2-3.5,3.8-3.4c9.6,0.1,19.2,0.2,28.7,0.1c2.6,0,3.4,0.8,3.3,3.4c-0.2,6.9-0.1,13.8-0.1,21.4
		c-8.4-0.6-15.8-1.1-23.6-1.6c-0.3,4.2-0.5,8.2-0.8,12.6c4,0.6,7.7,1,11.4,1.7c0.9,0.2,2.3,1.2,2.3,1.8c-0.1,7.2-0.5,14.4-0.8,22.2
		c-4.8-0.9-9.1-1.8-13.8-2.7c-0.3,5.3-0.6,10.4-0.6,15.6c0,0.6,1.6,1.4,2.6,1.6c5.9,1.5,11.9,2.9,17.9,4.2c2.2,0.5,3.1,1.2,2.9,3.6
		C117.2,266.3,117,273.4,116.7,281.5"/>
	<path class="st0" d="M152.5,218.2c-0.8-3.8-1.3-7-2-10.1c-0.3-1.4-0.8-2.9-1.5-4.2c-2-3.7-5.8-4-7.4-0.2c-1.9,4.4-3.6,9.2-3.8,13.9
		c-0.6,10.7-0.4,21.4-0.1,32.1c0.1,3,1.3,6.1,2.7,8.8c1.9,3.8,5.8,3.9,7.8,0.1c1.9-3.5,3.1-7.4,4.9-11.8c1.8,2.5,3.2,5.1,5.2,7.1
		c5.4,5.3,6.3,11.1,2.7,17.6c-2.2,4-3.8,8.5-6.6,12.1c-4.8,6.2-12.3,6.6-18.3,1.3c-5.9-5.2-8.7-12.2-10.4-19.6
		c-5-22.2-4.3-44.5,1-66.6c1.5-6.1,4.3-12,7.5-17.4c4.5-7.4,11.9-9.5,18-5.7c2.3,1.4,4.4,3.8,5.7,6.3c4.2,7.4,5.1,15.7,6.3,24
		c0.1,0.8-0.2,2-0.8,2.5C160.1,211.6,156.5,214.7,152.5,218.2"/>
	<path class="st0" d="M210,101.3c4.5,0.5,8.9,1,13.4,1.4c0,6.3,0.1,12.4-0.1,18.5c0,0.6-1.7,1.7-2.7,1.7c-3.5,0-7.1-0.3-11.4-0.5
		c0,4.7-0.1,9,0.1,13.4c0,0.6,1.7,1.6,2.6,1.7c5.8,0.4,11.5,0.6,17.3,0.6c2.6,0,3.4,0.9,3.3,3.5c-0.3,4.7-0.3,9.5-0.3,14.2
		c0,2.3-0.9,3-3.1,3c-10.2-0.1-20.3-0.1-30.5,0c-3.4,0-2.9-2.2-2.9-4.2c0.1-22.7,0.3-45.5,0.4-68.2c0-5,0-9.9,0.1-14.9
		c0-1.1,0.1-2.2,0.3-4.1c9,1,17.7,1.9,26.3,3c2.7,0.3,5.5,1,8.2,1.4c1.9,0.3,2.8,1,2.7,3.2c-0.2,4.7-0.3,9.5-0.2,14.2
		c0,2.8-1,3.5-3.7,3.1c-6.5-1-13-1.7-19.9-2.6v11.6H210z"/>
	<path class="st0" d="M180.8,97.4c-1.7-2.1-2.5-4-4-4.8c-2.7-1.6-5.7-2.9-8.7-3.6c-2.2-0.5-4.4,0.6-5.1,3.1
		c-0.8,2.7-0.3,5.1,2.1,6.7c1.5,1,3.2,1.9,4.9,2.5c11,3.9,16.9,11.5,17.8,23.1c0.5,7.3,0.3,14.5-1.8,21.6
		c-3.8,12.8-15.5,17.7-27.4,11.3c-0.4-0.2-0.8-0.5-1.2-0.7c-8.7-5.3-8.9-5.8-6-15.5c1-3.5,2.1-7,3.3-10.7c2.8,2.1,5.3,4.2,8,5.8
		c1.6,1,3.6,1.6,5.5,1.8c2.6,0.3,5.3,0.1,6.3-3c0.9-3,0.3-5.9-2.5-7.7c-2.1-1.4-4.4-2.5-6.8-3.4c-9.2-3.5-14.5-9.9-15.6-19.8
		c-1-9-0.8-17.7,3.3-26.1c6.8-13.7,24.2-15.4,33.3-3.1c0.5,0.7,1.1,1.8,0.9,2.4C185.3,83.8,183.2,90,180.8,97.4"/>
	<path class="st0" d="M169.2,203.5c0-8.8-0.1-17.2,0.1-25.6c0-0.7,1.6-2,2.4-2c11.5,0,23.1,0.1,34.6,0.3c0.7,0,1.8,1.4,1.8,2.1
		c0.2,7.7,0.2,15.5,0.1,23.2c0,0.8-1.4,2.2-2.3,2.4c-2.4,0.3-4.8,0.3-7.3,0.1c-2.7-0.2-3.5,0.7-3.5,3.5c0.1,17.4,0.1,34.9,0,52.3
		c0,9.2-0.1,18.5,0,27.7c0,2.8-0.9,3.7-3.6,3.5c-2.2-0.2-4.4-0.2-6.6-0.1c-3.1,0.3-3.9-1-3.8-4c0.3-25.4,0.5-50.8,0.7-76.2
		c0.1-6.5,0-6.5-6.4-6.8C173.4,203.7,171.3,203.6,169.2,203.5"/>
	<path class="st0" d="M112.3,81.8c0,6.2-0.2,12.4,0,18.6c0.3,10,0.8,20.1,1.4,30.1c0.1,1.9,0.9,3.8,1.5,5.6c0.9,2.6,2.6,4,5.4,4
		c2.9,0,4.8-1.8,5.2-4.2c0.8-5.2,1.5-10.5,1.4-15.7c-0.2-13.6-0.8-27.2-1.3-40.9c-0.1-2.1,0.4-3.3,2.5-3.7c3.5-0.8,6.9-1.7,10.8-2.7
		c0.2,2.9,0.6,5.3,0.6,7.8c0.3,16.1,0.7,32.1,0.9,48.2c0.1,7.1-1,14-4,20.6c-5.7,12.7-21.4,14.5-29.9,3.5
		c-5.3-6.8-6.6-14.9-7.1-23.2c-0.7-13.4-1-26.8-1.6-40.2c-0.1-2.3,0.5-3.6,2.8-4.4c3.3-1.2,6.6-2.6,9.8-4
		C111.4,81.5,111.9,81.7,112.3,81.8"/>
	<path class="st0" d="M342.5,254.3c-1.2-4.4-2.2-8.3-3.4-12.5c-4.3,1.7-8.4,3.2-12.3,5c-0.7,0.3-1.1,1.6-1.3,2.6
		c-0.4,3.2-0.8,6.4-0.8,9.7c0,3.2-1.4,5.1-4.4,6.2c-3.2,1.1-6.4,2.5-10.1,4.1c0.3-2.7,0.4-4.7,0.7-6.7c3.7-28,7.3-56.1,11-84.1
		c0.3-2,0.9-2.9,3-2.8c13,0.4,9.6-2.8,13.1,9.5c5.5,19,10.9,37.9,16.4,56.9c1.4,4.8,1.5,4.8-2.9,7.3
		C348.7,250.9,345.8,252.4,342.5,254.3 M327.9,226.8c2.3-0.6,4-0.9,5.4-1.6c0.7-0.3,1.5-1.6,1.4-2.2c-1.3-6.6-2.8-13.1-4.2-19.7
		c-0.1,0-0.3,0-0.4,0C329.4,211,328.7,218.6,327.9,226.8"/>
	<path class="st0" d="M54,159c0-5.3,0-10.4,0-15.6c0-9.1-0.1-18.3,0.1-27.4c0-1.6,0.8-3.8,2-4.7c6.4-4.5,13-8.8,19.6-13.1
		c1.1-0.7,2.3-1.2,3.4-1.6c5.9-2.1,9.7,0,11,6.1c1.5,7.2,1.2,14-3.8,19.9c7.9,7.1,9.2,22.8,2.6,31c-2.3,3-5.4,4.9-9.1,5.1
		c-8,0.4-15.9,0.4-23.9,0.6C55.3,159.4,54.8,159.2,54,159 M66.1,147.1c3.4-0.5,6.1-0.9,8.8-1.3c4.6-0.8,7-5.4,4.7-9.5
		c-0.5-1-2.2-2-3.2-1.9c-3.1,0.4-6.1,1.3-9,2.2c-0.6,0.2-1.2,1.3-1.3,2.1C66,141.3,66.1,143.9,66.1,147.1 M65.5,125.1
		c3.7-1.4,6.8-2.5,9.7-3.8c2.7-1.2,4.1-4.7,2.9-7.3c-0.4-0.8-1.8-2.1-2.3-1.9c-3.3,1.3-6.5,2.9-9.7,4.6c-0.4,0.2-0.6,1.2-0.6,1.8
		C65.5,120.5,65.5,122.4,65.5,125.1"/>
	<path class="st0" d="M240.9,73.7c7,2.1,13.4,3.9,19.7,6c5.7,1.9,11.2,4.4,16.8,6.5c2.2,0.8,2.9,2.1,2.7,4.5
		c-0.4,4.5-0.5,9.1-0.8,14.1c-4.4-1.3-8.3-2.5-12.6-3.9c-0.3,5.1-0.5,9.9-0.7,14.7c-0.5,13.4-1.1,26.7-1.5,40.1
		c-0.1,2.4-0.9,3.2-3.2,3.2c-10,0.2-10,0.3-9.7-9.4c0.5-16.1,1-32.3,1.7-48.4c0.1-3.1-0.8-4.5-3.8-4.6c-0.6,0-1.1-0.3-1.7-0.4
		c-7.9-1.7-8-1.7-7.6-9.7C240.4,82.4,240.6,78.5,240.9,73.7"/>
	<path class="st0" d="M321.9,159.2c-4.2,0-8,0.2-11.8-0.1c-1-0.1-2.3-1.7-2.6-2.9c-2-7.1-1.9-7.1-9.1-7.7c-1.9-0.2-3.9-0.4-6-0.7
		c-0.8,3-1.6,5.7-2.2,8.5c-0.4,1.9-1.2,2.8-3.3,2.7c-3.6-0.1-7.1,0-11.8,0c6.5-21.6,12.7-42.6,19.2-64.4c4.5,2.7,8.4,4.9,12.1,7.4
		c0.6,0.4,0.8,1.6,1.1,2.5c4.7,17.7,9.5,35.4,14.2,53.2C321.8,158,321.8,158.4,321.9,159.2 M300.1,117.6c-1.3,5.4-2.5,9.8-3.4,14.3
		c-0.2,0.8,0.8,2.2,1.6,2.6c1.4,0.6,3,0.7,4.8,1.1C302.1,129.5,301.2,124,300.1,117.6"/>
	<path class="st0" d="M25.1,213.4c-4.8-1.9-8.7-3.5-13.1-5.2c-0.2,2.7-0.5,5.1-0.3,7.4c0.1,1,1.1,2.2,2.1,2.7c5.6,3,11.2,6,16.9,8.7
		c2.2,1,2.9,2.2,2.7,4.5c-0.4,4.2-0.5,8.5-0.7,13.4c-4.1-2.7-7.8-4.9-11.3-7.4c-6.6-4.7-13-9.5-19.5-14.4c-1-0.7-1.9-2.2-1.9-3.3
		c-0.1-14.7,0-29.3,0-44c0-0.3,0.2-0.6,0.3-1c11.1,0,22.2,0,33.2,0.1c0.7,0,1.9,1.3,1.9,2c-0.1,4.6-0.4,9.2-0.7,14.4
		c-7.4-1.1-14.5-2.2-21.6-3.2c-2.1,5.5-1.5,6.7,3.8,8.1c8.5,2.2,8.5,2.2,8.2,10.9C25.1,208.9,25.1,210.7,25.1,213.4"/>
	<path class="st0" d="M72.8,266c-4-1.9-7.4-3.4-10.7-5.1c-6.7-3.4-13.3-6.8-19.9-10.4c-1-0.5-2-2-1.9-3.1
		c1.1-23.3,2.3-46.5,3.6-69.8c0.1-0.9,1.4-2.4,2.3-2.5c3.4-0.3,6.9-0.1,10.7-0.1c0,2.8,0.1,5.2,0,7.5c-0.9,17.3-1.8,34.6-2.9,51.8
		c-0.1,2,0.8,2.6,2.3,3.2c5.1,1.8,10.2,3.7,15.3,5.4c1.8,0.6,2.4,1.5,2.3,3.5C73.4,252.7,73.2,259,72.8,266"/>
	<path class="st0" d="M222.8,46.8c-4.5,0-8.5,0.2-12.5-0.1c-0.9-0.1-2.2-1.9-2.4-3.1c-0.6-3.8-2.6-5.4-6.4-4.8c-0.9,0.1-1.8,0-2.8,0
		c-6.1,0-6,0-8,5.6c-0.4,1-1.7,2.4-2.7,2.4c-3.8,0.3-7.6,0.1-12,0.1c1.9-5.4,3.6-10.2,5.3-15c3.4-9.4,6.9-18.8,10.2-28.3
		c0.9-2.5,2-3.6,4.9-3.6c9.6,0.1,9.5,0,12.8,9c4,11.2,8.1,22.3,12.2,33.5C221.9,43.9,222.3,45.2,222.8,46.8 M199.5,14.9
		c-1.3,5-2.4,9.1-3.5,13.3h7.1C201.8,23.9,200.8,19.8,199.5,14.9"/>
	<path class="st0" d="M373.7,220.3c6.3-3.5,12.1-6.7,17.9-9.9c2.2,4.6,1.2,10.6-2.5,13.3c-8.8,6.5-17.7,12.8-27.3,19.8
		c-0.4-6.9-0.7-12.6-0.9-18.3c-0.7-15.2-1.4-30.5-2.2-45.7c-0.2-3.1,0.4-4.6,3.8-4.2c1.9,0.2,3.9,0.2,5.9,0c2.8-0.3,3.5,1,3.6,3.6
		c0.4,12.8,0.9,25.6,1.4,38.4C373.4,218.1,373.5,218.8,373.7,220.3"/>
	<path class="st0" d="M138.1,23.5c0-6.8,0.1-13.6,0-20.4c0-2.1,0.7-2.8,2.8-2.9c10.5-0.5,10.5-0.6,10.5,10c0,7.3,0.1,14.5-0.1,21.8
		c-0.1,2.8,0.9,3.6,3.6,3.5c4.5-0.2,9,0,13.5,0c0.8,0,2.3-0.1,2.3,0.1c0.5,3,1.1,6.1,1.2,9.1c0,0.8-1.6,2.2-2.5,2.2
		c-9.7,0.1-19.4,0-29.1,0.1c-2.3,0-2.2-1.5-2.2-3.1V23.5L138.1,23.5z"/>
	<path class="st0" d="M352.1,135.3c-2.7,0-5.1-2.4-5.1-5c0-2.6,2.5-5.1,5.1-5.1c2.5-0.1,5.2,2.5,5.2,5.1
		C357.3,132.8,354.7,135.4,352.1,135.3"/>
	<path class="st0" d="M17.8,135.3c-2.7,0-5.1-2.4-5.1-5c0-2.7,2.4-5.1,5.1-5.1s5.1,2.4,5.1,5.1C22.9,133,20.6,135.3,17.8,135.3"/>
</g>
</svg>
